<?xml version="1.0" standalone="no"?>
<!DOCTYPE svg PUBLIC "-//W3C//DTD SVG 20010904//EN"
 "http://www.w3.org/TR/2001/REC-SVG-20010904/DTD/svg10.dtd">
<svg version="1.0" xmlns="http://www.w3.org/2000/svg"
 width="640.000000pt" height="1280.000000pt" viewBox="0 0 640.000000 1280.000000"
 preserveAspectRatio="xMidYMid meet">
<metadata>
Created by potrace 1.15, written by Peter Selinger 2001-2017
</metadata>
<g transform="translate(0.000000,1280.000000) scale(0.100000,-0.100000)"
fill="#000000" stroke="none">
<path d="M1613 12785 c-122 -34 -227 -100 -329 -208 -334 -351 -534 -1068
-534 -1917 0 -216 19 -338 78 -510 133 -385 428 -882 814 -1368 l58 -73 -284
-567 c-157 -312 -315 -634 -351 -717 -238 -535 -348 -909 -406 -1380 -19 -153
-17 -571 5 -740 38 -307 116 -632 197 -824 369 -875 1234 -1473 2199 -1520
161 -8 369 0 500 19 279 41 637 158 967 315 73 35 135 60 137 57 28 -46 666
-1440 688 -1502 187 -547 118 -1045 -182 -1323 -77 -72 -136 -112 -326 -220
-244 -139 -356 -175 -404 -127 -38 38 -27 79 42 161 110 132 192 269 234 391
76 225 44 428 -105 646 -54 80 -185 202 -269 251 -341 199 -764 124 -1004
-179 -60 -76 -112 -179 -144 -285 -23 -79 -27 -108 -28 -230 0 -166 21 -261
88 -390 49 -96 192 -245 301 -317 232 -151 521 -239 735 -224 204 15 469 91
664 190 159 82 224 125 314 211 201 190 334 449 378 740 21 135 14 379 -16
529 -52 264 -58 278 -466 1041 -206 387 -374 707 -374 712 0 5 14 17 31 27 41
24 329 305 452 441 249 276 357 519 447 1005 30 164 39 527 16 695 -104 783
-667 1387 -1445 1552 -115 25 -147 27 -351 27 -238 1 -296 -5 -475 -51 -166
-43 -397 -141 -517 -220 -22 -15 -42 -22 -47 -17 -14 15 -593 1083 -598 1102
-2 10 32 112 75 228 452 1183 632 2198 507 2859 -168 899 -452 1419 -888 1630
-153 73 -298 104 -384 80z m309 -581 c194 -98 376 -441 489 -919 22 -91 24
-121 23 -345 0 -280 -16 -398 -84 -639 -82 -289 -159 -475 -442 -1066 -69
-143 -128 -269 -132 -279 -5 -16 -14 -9 -53 45 -314 431 -461 874 -438 1319
45 851 165 1334 458 1833 l52 89 38 -6 c21 -4 61 -18 89 -32z m593 -4904 l275
-505 -48 -39 c-76 -63 -218 -211 -280 -294 -275 -362 -411 -815 -374 -1243 25
-290 103 -538 226 -723 176 -263 493 -461 853 -533 110 -21 321 -24 378 -4 48
16 85 48 85 72 0 26 -8 28 -124 39 -357 34 -548 164 -695 475 -148 310 -169
626 -65 934 36 106 106 235 180 334 89 118 245 261 264 241 5 -5 313 -567 684
-1249 l676 -1240 -22 -17 c-97 -73 -223 -139 -338 -176 -357 -116 -632 -158
-964 -149 -213 6 -311 21 -484 73 -265 80 -482 213 -693 424 -201 200 -324
376 -466 665 -137 280 -185 429 -203 636 -32 373 84 880 379 1651 126 330 465
1148 473 1140 4 -4 132 -235 283 -512z m1587 -1025 c369 -65 692 -302 857
-631 43 -84 87 -206 145 -398 109 -359 119 -686 29 -955 -35 -106 -114 -254
-188 -353 -60 -79 -272 -294 -281 -285 -9 8 -1354 2480 -1354 2488 0 10 173
84 244 105 159 45 385 57 548 29z"/>
</g>
</svg>
